<?xml version="1.0" standalone="no"?>
<!DOCTYPE svg PUBLIC "-//W3C//DTD SVG 20010904//EN"
 "http://www.w3.org/TR/2001/REC-SVG-20010904/DTD/svg10.dtd">
<svg version="1.0" xmlns="http://www.w3.org/2000/svg"
 width="500.000000pt" height="500.000000pt" viewBox="0 0 500.000000 500.000000"
 preserveAspectRatio="xMidYMid meet">
<metadata>
Created by potrace 1.14, written by Peter Selinger 2001-2017
</metadata>
<g transform="translate(0.000000,500.000000) scale(0.100000,-0.100000)"
fill="#000000" stroke="none">
<path d="M1422 4783 c-58 -20 -117 -78 -131 -128 -6 -22 -11 -68 -11 -102 l0
-63 83 0 83 0 17 34 c17 36 63 75 112 95 20 7 81 11 174 9 l144 -3 55 -147 55
-148 94 0 c51 0 93 4 93 9 0 5 -22 68 -50 141 -27 73 -50 136 -50 141 0 5 162
9 375 9 206 0 375 -2 375 -5 0 -3 -69 -190 -99 -267 l-11 -28 98 0 97 0 55
148 55 147 154 3 c143 2 156 1 205 -21 49 -23 84 -58 99 -99 5 -15 19 -18 88
-18 l81 0 -4 93 c-4 110 -19 138 -100 183 l-53 29 -1020 2 c-895 1 -1025 0
-1063 -14z"/>
<path d="M1855 4148 c-49 -28 -88 -89 -65 -103 6 -3 8 -11 4 -17 -3 -5 6 -23
22 -39 l28 -29 620 0 c573 0 623 2 642 18 27 22 44 54 44 85 0 25 -37 67 -61
67 -12 0 -12 2 1 10 9 6 10 10 3 10 -6 0 -20 3 -30 6 -15 5 -15 4 -3 -5 9 -7
10 -11 3 -11 -6 0 -15 5 -18 10 -9 15 -1164 13 -1190 -2z m-21 -114 c3 -8 2
-12 -4 -9 -6 3 -10 10 -10 16 0 14 7 11 14 -7z m1293 -6 c-3 -8 -6 -5 -6 6 -1
11 2 17 5 13 3 -3 4 -12 1 -19z m-1307 -19 c0 -6 -4 -7 -10 -4 -5 3 -10 11
-10 16 0 6 5 7 10 4 6 -3 10 -11 10 -16z"/>
<path d="M1304 3660 c-11 -4 -33 -22 -47 -40 l-27 -32 0 -521 c0 -660 -22
-606 253 -607 l167 0 0 605 0 605 -162 -1 c-90 0 -172 -4 -184 -9z"/>
<path d="M1840 3065 l0 -605 660 0 660 0 0 605 0 605 -660 0 -660 0 0 -605z"/>
<path d="M3350 3065 l0 -605 163 0 c179 0 198 5 234 59 l23 34 0 511 c0 489
-1 512 -20 543 -34 56 -60 63 -240 63 l-160 0 0 -605z"/>
<path d="M1000 1511 c0 -754 0 -758 21 -785 45 -57 -24 -54 1241 -52 641 0
1162 -2 1156 -5 -5 -4 52 -108 130 -235 l139 -229 97 -3 98 -3 -24 39 c-13 21
-77 126 -143 235 l-120 196 -75 4 c-41 1 24 1 145 -1 243 -5 277 1 311 54 17
26 18 73 19 786 l0 758 -1497 0 -1498 0 0 -759z m1601 389 c157 -80 172 -296
26 -395 -150 -103 -357 6 -357 187 0 174 178 285 331 208z"/>
<path d="M1420 562 c-36 -59 -99 -163 -142 -232 l-77 -125 91 -3 c65 -2 95 1
103 10 13 15 275 446 275 453 0 3 -42 5 -92 5 l-93 0 -65 -108z"/>
</g>
</svg>
